<svg xmlns="http://www.w3.org/2000/svg" width="48" height="37" viewBox="0 0 48 37" fill="none">
<g filter="url(#filter0_d_31_2)">
<line x1="2" y1="1" x2="2" y2="22" stroke="#CCC5B9" stroke-width="2"/>
</g>
<g filter="url(#filter1_d_31_2)">
<path d="M40.7071 22.7071C41.0976 22.3166 41.0976 21.6834 40.7071 21.2929L34.3431 14.9289C33.9526 14.5384 33.3195 14.5384 32.9289 14.9289C32.5384 15.3195 32.5384 15.9526 32.9289 16.3431L38.5858 22L32.9289 27.6569C32.5384 28.0474 32.5384 28.6805 32.9289 29.0711C33.3195 29.4616 33.9526 29.4616 34.3431 29.0711L40.7071 22.7071ZM1 23H40V21H1V23Z" fill="#CCC5B9"/>
</g>
<defs>
<filter id="filter0_d_31_2" x="0" y="0" width="10" height="29" filterUnits="userSpaceOnUse" color-interpolation-filters="sRGB">
<feFlood flood-opacity="0" result="BackgroundImageFix"/>
<feColorMatrix in="SourceAlpha" type="matrix" values="0 0 0 0 0 0 0 0 0 0 0 0 0 0 0 0 0 0 127 0" result="hardAlpha"/>
<feOffset dx="3" dy="3"/>
<feGaussianBlur stdDeviation="2"/>
<feComposite in2="hardAlpha" operator="out"/>
<feColorMatrix type="matrix" values="0 0 0 0 0 0 0 0 0 0 0 0 0 0 0 0 0 0 0.75 0"/>
<feBlend mode="normal" in2="BackgroundImageFix" result="effect1_dropShadow_31_2"/>
<feBlend mode="normal" in="SourceGraphic" in2="effect1_dropShadow_31_2" result="shape"/>
</filter>
<filter id="filter1_d_31_2" x="0" y="13.636" width="48" height="22.7279" filterUnits="userSpaceOnUse" color-interpolation-filters="sRGB">
<feFlood flood-opacity="0" result="BackgroundImageFix"/>
<feColorMatrix in="SourceAlpha" type="matrix" values="0 0 0 0 0 0 0 0 0 0 0 0 0 0 0 0 0 0 127 0" result="hardAlpha"/>
<feOffset dx="3" dy="3"/>
<feGaussianBlur stdDeviation="2"/>
<feComposite in2="hardAlpha" operator="out"/>
<feColorMatrix type="matrix" values="0 0 0 0 0 0 0 0 0 0 0 0 0 0 0 0 0 0 0.75 0"/>
<feBlend mode="normal" in2="BackgroundImageFix" result="effect1_dropShadow_31_2"/>
<feBlend mode="normal" in="SourceGraphic" in2="effect1_dropShadow_31_2" result="shape"/>
</filter>
</defs>
</svg>