<svg width="20" height="20" viewBox="0 0 20 20" fill="none" xmlns="http://www.w3.org/2000/svg">
    <g clip-path="url(#clip0_516_359)">
        <path
            d="M7.53333 16.636C7.70201 16.583 7.84271 16.4651 7.92447 16.3083C8.00624 16.1515 8.02238 15.9687 7.96933 15.8C7.91629 15.6313 7.79841 15.4907 7.64163 15.4089C7.48485 15.3271 7.30201 15.311 7.13333 15.364L7.53333 16.636ZM2.66933 12.6894L2.024 12.5187L1.68533 13.8094L2.33067 13.9787L2.66933 12.688V12.6894ZM12 19.3334V20H13.3333V19.3334H12ZM12.084 12.916L12.012 12.2534C11.8867 12.2668 11.7678 12.3154 11.669 12.3937C11.5703 12.4719 11.4957 12.5766 11.454 12.6955C11.4122 12.8144 11.4051 12.9427 11.4333 13.0655C11.4615 13.1883 11.5239 13.3006 11.6133 13.3894L12.0827 12.9174L12.084 12.916ZM16.6667 7.88403H17.3333V7.88003L16.6667 7.88403ZM15.556 5.20803L14.9347 4.96803C14.8882 5.08824 14.8776 5.21935 14.9041 5.34548C14.9306 5.47161 14.9931 5.58735 15.084 5.67869L15.556 5.20803ZM15.4893 2.51869L16.0973 2.24669C16.0575 2.15807 15.9988 2.07921 15.9254 2.01564C15.8519 1.95208 15.7654 1.90534 15.672 1.87869L15.4893 2.51869ZM12.592 3.57469L12.424 4.22003C12.5135 4.24341 12.607 4.2479 12.6983 4.23321C12.7897 4.21852 12.877 4.18497 12.9547 4.13469L12.592 3.57469ZM7.408 3.57469L7.04533 4.13469C7.12302 4.18497 7.21032 4.21852 7.30169 4.23321C7.39305 4.2479 7.48647 4.24341 7.576 4.22003L7.408 3.57469ZM4.51067 2.52003L4.328 1.88003C4.23433 1.9065 4.14759 1.95316 4.07388 2.01674C4.00017 2.08031 3.94127 2.15926 3.90133 2.24803L4.51067 2.52003ZM4.444 5.20936L4.916 5.68003C5.00718 5.58857 5.06983 5.47259 5.09634 5.34619C5.12285 5.21979 5.11208 5.08842 5.06533 4.96803L4.444 5.20936ZM3.33333 7.90669H4V7.90403L3.33333 7.90669ZM7.91733 12.9174L8.38667 13.3907C8.47548 13.3024 8.53762 13.1908 8.56597 13.0688C8.59432 12.9469 8.58773 12.8193 8.54696 12.7009C8.50618 12.5825 8.43288 12.478 8.33543 12.3993C8.23799 12.3206 8.12035 12.2709 7.996 12.256L7.916 12.9174H7.91733ZM7.33333 14.6667H8L7.99867 14.6174L7.33333 14.6667ZM6.66667 19.3334V20H8V19.3334H6.66667ZM7.13333 15.364C6.32933 15.6174 5.81867 15.5894 5.48 15.4774C5.14533 15.3667 4.888 15.144 4.64133 14.824C4.51239 14.6515 4.39224 14.4726 4.28133 14.288C4.168 14.1027 4.03867 13.8854 3.908 13.692C3.65333 13.3174 3.27733 12.848 2.66933 12.688L2.33067 13.9787C2.43733 14.0054 2.576 14.1054 2.804 14.44C2.91333 14.6027 3.01733 14.776 3.148 14.9894C3.27333 15.192 3.41733 15.416 3.584 15.6347C3.92133 16.0747 4.38133 16.5187 5.064 16.744C5.744 16.968 6.552 16.944 7.53333 16.636L7.13333 15.364ZM13.3333 14.584C13.3333 14.16 13.3147 13.7734 13.1947 13.4134C13.0667 13.0294 12.8453 12.7334 12.5533 12.444L11.6133 13.3907C11.82 13.5947 11.8907 13.7174 11.9293 13.8347C11.976 13.9747 12 14.1734 12 14.584H13.3333ZM12.1547 13.58C13.3587 13.4507 14.672 13.1467 15.684 12.2707C16.724 11.3707 17.3333 9.96536 17.3333 7.88403H16C16 9.69603 15.48 10.684 14.8107 11.2627C14.112 11.868 13.1333 12.1334 12.012 12.2534L12.1547 13.58ZM17.3333 7.88003C17.3294 6.70073 16.8597 5.57074 16.0267 4.73603L15.084 5.67869C15.668 6.26536 15.9973 7.05603 16 7.88403L17.3333 7.88003ZM16.1773 5.44803C16.3773 4.93603 16.4707 4.38936 16.4573 3.83869L15.124 3.87203C15.1337 4.2454 15.0694 4.617 14.9347 4.96536L16.1773 5.44803ZM16.4573 3.83869C16.4438 3.289 16.3215 2.74878 16.0973 2.24669L14.88 2.78936C15.0333 3.13069 15.1147 3.49869 15.124 3.87203L16.4573 3.83869ZM15.4893 2.51869C15.672 1.87736 15.672 1.87603 15.6707 1.87603H15.6667L15.6613 1.87336C15.6481 1.8698 15.6348 1.86669 15.6213 1.86403C15.5282 1.84539 15.4336 1.83469 15.3387 1.83203C15.11 1.82909 14.8817 1.85326 14.6587 1.90403C14.092 2.02536 13.2933 2.32669 12.232 3.01336L12.9547 4.13336C13.9133 3.51469 14.5627 3.28803 14.9387 3.20803C15.0724 3.17725 15.2095 3.16381 15.3467 3.16803L15.336 3.16669C15.3315 3.16589 15.3271 3.165 15.3227 3.16403L15.3147 3.16136H15.3107L15.308 3.16003C15.3067 3.16003 15.3053 3.16003 15.4893 2.51736V2.51869ZM12.76 2.92803C10.9502 2.45643 9.04978 2.45643 7.24 2.92803L7.576 4.22003C9.16546 3.8058 10.8345 3.8058 12.424 4.22003L12.76 2.92803ZM7.76933 3.01336C6.70667 2.32803 5.90667 2.02669 5.34 1.90669C5.11692 1.85635 4.88866 1.83263 4.66 1.83603C4.55185 1.83897 4.44424 1.85237 4.33867 1.87603L4.33333 1.87869H4.32933L4.51067 2.52003L4.69333 3.16136L4.68933 3.16269L4.68533 3.16403C4.67827 3.16598 4.67115 3.16776 4.664 3.16936C4.7976 3.16591 4.9311 3.18068 5.06133 3.21069C5.43733 3.29069 6.08667 3.51603 7.04533 4.13469L7.76933 3.01603V3.01336ZM3.90267 2.24536C3.67855 2.74746 3.55619 3.28901 3.54267 3.83869L4.876 3.87203C4.88392 3.49843 4.9669 3.13024 5.12 2.78936L3.90267 2.24536ZM3.54267 3.83869C3.52933 4.38936 3.62267 4.93603 3.82267 5.44803L5.06533 4.96536C4.93015 4.6171 4.86535 4.24549 4.87467 3.87203L3.54133 3.83869H3.54267ZM3.972 4.73603C3.55682 5.15255 3.22788 5.64687 3.004 6.19069L4.236 6.69736C4.39333 6.31736 4.62533 5.97069 4.916 5.67736L3.972 4.73603ZM3.004 6.19069C2.77972 6.73492 2.66508 7.31807 2.66667 7.90669L4 7.90403C4 7.49069 4.08 7.08136 4.236 6.70003L3.004 6.19336V6.19069ZM2.66667 7.90669C2.66667 9.97736 3.27733 11.3694 4.31867 12.264C5.328 13.1307 6.63867 13.4374 7.83867 13.58L7.996 12.256C6.86667 12.12 5.888 11.8534 5.18667 11.2507C4.51733 10.676 4 9.70136 4 7.90403H2.66667V7.90669ZM7.44667 12.4454C6.78 13.1094 6.608 13.8987 6.668 14.7174L7.99867 14.6174C7.95867 14.0734 8.06933 13.7067 8.388 13.3894L7.448 12.444L7.44667 12.4454ZM6.66667 14.6667V19.3334H8V14.6667H6.66667ZM13.3333 19.3334V17.3334H12V19.3334H13.3333ZM13.3333 17.3334V14.584H12V17.3334H13.3333Z"
            fill="#CCC5B9" />
    </g>
    <defs>
        <clipPath id="clip0_516_359">
            <rect width="20" height="20" fill="white" />
        </clipPath>
    </defs>
</svg>